<svg width="48" height="48" viewBox="0 0 48 48" fill="none" xmlns="http://www.w3.org/2000/svg">
<mask id="mask0_12917_116071" style="mask-type:alpha" maskUnits="userSpaceOnUse" x="0" y="0" width="48" height="48">
<rect width="48" height="48" fill="#D9D9D9"/>
</mask>
<g mask="url(#mask0_12917_116071)">
</g>
<g clip-path="url(#clip0_12917_116071)">
<path d="M23.6774 45.6771C35.6495 45.6771 45.3548 35.9718 45.3548 23.9997C45.3548 12.0276 35.6495 2.32227 23.6774 2.32227C11.7053 2.32227 2 12.0276 2 23.9997C2 35.9718 11.7053 45.6771 23.6774 45.6771Z" fill="white"/>
<path d="M23.6774 2.32227C11.7071 2.32227 2 12.0294 2 23.9997C2 35.9699 11.7071 45.6771 23.6774 45.6771C35.6477 45.6771 45.3548 35.9699 45.3548 23.9997C45.3548 12.0294 35.6477 2.32227 23.6774 2.32227ZM19.6194 38.84C19.6151 39.1478 19.4546 39.3863 19.1988 39.4643C19.0298 39.5163 18.8607 39.4947 18.6916 39.4426C17.9199 39.1912 17.1655 38.8877 16.4415 38.5235C14.2347 37.4136 12.3661 35.8876 10.853 33.9366C9.29661 31.9293 8.2691 29.6748 7.77052 27.1776C7.56242 26.1327 7.4497 25.0749 7.4627 24.0083C7.44536 18.8621 9.90792 13.9544 14.161 10.8632C15.5527 9.85299 17.0615 9.08561 18.6959 8.55669C18.7783 8.53067 18.8607 8.509 18.9474 8.50466C19.3202 8.48732 19.5977 8.7171 19.6107 9.08995C19.6281 9.57119 19.6367 10.0524 19.6064 10.5293C19.5847 10.8805 19.3809 11.1493 19.0471 11.2924C18.7696 11.4094 18.4835 11.5135 18.206 11.6392C15.531 12.8445 13.4587 14.7217 11.9716 17.2493C11.1262 18.6887 10.5886 20.2451 10.3198 21.8926C10.1377 23.0285 10.0943 24.1731 10.2201 25.3133C10.6493 29.1892 12.4052 32.3325 15.479 34.73C16.5412 35.5581 17.7161 36.1954 18.9821 36.6593C19.2639 36.7633 19.446 36.9584 19.5587 37.2315C19.5934 37.3226 19.6151 37.418 19.6151 37.5134C19.6194 37.9599 19.6237 38.3978 19.6194 38.84ZM25.2945 31.9249C25.0431 31.9726 25.0431 31.9726 25.0431 32.2327C25.0431 32.8007 25.0431 33.3643 25.0431 33.9322C25.0431 33.9713 25.0431 34.0103 25.0431 34.0536C25.0214 34.5999 24.6659 34.8254 24.2584 34.8124C23.8421 34.7993 23.4216 34.8124 23.0054 34.808C22.6759 34.8037 22.4331 34.6086 22.3464 34.3051C22.3247 34.2314 22.3247 34.1577 22.3247 34.084C22.3247 34.071 22.3247 34.0623 22.3247 34.0493C22.3247 33.7458 22.3247 33.4423 22.3247 33.1389C22.3247 32.8007 22.3204 32.4625 22.3247 32.1244C22.3247 32.0333 22.2987 31.9943 22.2033 31.9813C21.7611 31.9163 21.3276 31.8209 20.9027 31.6778C20.0183 31.3787 19.2422 30.9148 18.6352 30.1907C18.089 29.5404 17.7725 28.7817 17.5904 27.9623C17.5687 27.8669 17.5514 27.7715 17.5384 27.6762C17.4863 27.3293 17.7378 27.0128 18.0846 26.9781C18.1236 26.9738 18.1627 26.9738 18.206 26.9738C18.6916 26.9738 19.1772 26.9825 19.6627 26.9695C20.0399 26.9608 20.3087 27.2339 20.3694 27.5461C20.4215 27.8236 20.5168 28.0837 20.6382 28.3395C20.9027 28.9118 21.3362 29.3063 21.9085 29.5534C22.3161 29.7268 22.7496 29.8135 23.1918 29.8482C23.7251 29.8872 24.254 29.8916 24.7786 29.7572C25.2165 29.6445 25.624 29.4667 25.9709 29.1762C26.5908 28.6516 26.838 27.9753 26.7729 27.1776C26.7599 27.0345 26.7426 26.8914 26.7079 26.7527C26.5952 26.2931 26.322 25.955 25.9188 25.7208C25.5113 25.4781 25.0648 25.3437 24.6052 25.2309C24.0372 25.0922 23.4606 25.0098 22.884 24.9188C21.9866 24.7757 21.0978 24.5763 20.261 24.2034C19.9142 24.0517 19.589 23.8609 19.2856 23.6311C18.5789 23.0849 18.167 22.3565 18.0023 21.4894C17.9155 21.0342 17.8809 20.5703 17.9155 20.1064C18.0066 18.8751 18.5485 17.878 19.5067 17.1063C20.2003 16.547 21.0024 16.2131 21.8738 16.0354C21.9909 16.0094 22.108 15.9877 22.2293 15.9704C22.2944 15.9617 22.3204 15.9313 22.3161 15.8706C22.3161 15.8316 22.3161 15.7926 22.3161 15.7492C22.3161 15.1249 22.3161 14.5006 22.3161 13.8807C22.3161 13.5338 22.5328 13.2737 22.858 13.2043C22.9144 13.1913 22.9707 13.1913 23.0271 13.1913C23.452 13.1913 23.8725 13.187 24.2974 13.1913C24.7353 13.1956 25.0171 13.4731 25.0171 13.911C25.0214 14.5527 25.0171 15.1943 25.0171 15.8316C25.0171 16.005 25.0171 16.005 25.1818 16.0397C25.8061 16.1655 26.4044 16.3736 26.9594 16.6987C27.9695 17.297 28.5982 18.1858 28.9363 19.3C28.9754 19.4257 29.01 19.5515 29.0317 19.6815C29.1098 20.0674 28.8496 20.4186 28.4551 20.4272C27.9522 20.4402 27.4493 20.4359 26.9464 20.4272C26.6732 20.4229 26.4478 20.2365 26.3567 19.9547C26.2917 19.7466 26.2093 19.5471 26.1096 19.352C25.8191 18.8101 25.3769 18.4546 24.8003 18.2595C24.2844 18.0904 23.7468 18.0514 23.2092 18.0687C22.7669 18.0861 22.3334 18.1511 21.9215 18.3289C21.2712 18.6063 20.842 19.0746 20.7249 19.7856C20.6599 20.1844 20.6772 20.5833 20.8116 20.9735C20.9244 21.3073 21.1498 21.5545 21.4446 21.7409C21.8131 21.975 22.2207 22.1051 22.6369 22.2134C23.2092 22.3565 23.7945 22.4346 24.3754 22.5213C25.2772 22.66 26.166 22.8421 27.0157 23.1803C27.4579 23.358 27.8741 23.5791 28.2513 23.8783C28.7846 24.3031 29.1661 24.8364 29.3699 25.4867C29.6734 26.4579 29.7211 27.442 29.4479 28.4305C29.1184 29.6184 28.3857 30.5029 27.3496 31.1445C26.7166 31.5391 26.0229 31.7905 25.2945 31.9249ZM33.2241 37.1102C31.8281 38.1333 30.3063 38.905 28.6632 39.4383C28.5418 39.4773 28.4204 39.5033 28.2947 39.4903C28.0129 39.4643 27.8178 39.2909 27.7571 39.0178C27.7354 38.9267 27.7311 38.8357 27.7311 38.7446C27.7311 38.3978 27.7311 38.0466 27.7311 37.6998C27.7311 37.1058 27.8958 36.8587 28.4464 36.6506C30.1026 36.0219 31.5853 35.1072 32.873 33.8932C35.0277 31.8686 36.3977 29.406 36.9613 26.4969C37.1911 25.3046 37.2648 24.0994 37.1477 22.8941C36.7705 18.9618 35.0233 15.7623 31.9191 13.317C30.857 12.4803 29.682 11.83 28.4117 11.3704C27.9652 11.21 27.7181 10.7721 27.7311 10.3863C27.7441 10.0134 27.7354 9.64056 27.7354 9.27204C27.7354 9.15065 27.7484 9.02925 27.7961 8.92087C27.8958 8.69109 28.0692 8.56102 28.3207 8.54368C28.4464 8.53501 28.5722 8.56102 28.6892 8.60004C30.4971 9.18533 32.1576 10.0481 33.649 11.223C36.7445 13.6639 38.7128 16.8158 39.5539 20.6657C39.7924 21.7626 39.9008 22.8768 39.9008 24.004C39.8921 29.1979 37.4469 34.0103 33.2241 37.1102Z" fill="#52A5FF"/>
</g>
<path fill-rule="evenodd" clip-rule="evenodd" d="M33.1403 27.4959C34.1188 26.9636 35.3005 26.9636 36.2791 27.4959L41.9521 30.5817C43.0091 31.1567 43.6671 32.2636 43.6671 33.4669V39.3071C43.6671 40.5103 43.0091 41.6173 41.9521 42.1923L36.2791 45.2781C35.3005 45.8104 34.1188 45.8104 33.1403 45.2781L27.4672 42.1923C26.4102 41.6173 25.7522 40.5103 25.7522 39.3071L25.7522 33.4669C25.7522 32.2636 26.4102 31.1567 27.4672 30.5817L33.1403 27.4959Z" fill="#627EEA"/>
<g clip-path="url(#clip1_12917_116071)">
<path d="M34.7097 43.8196C38.8144 43.8196 42.142 40.492 42.142 36.3873C42.142 32.2826 38.8144 28.9551 34.7097 28.9551C30.605 28.9551 27.2775 32.2826 27.2775 36.3873C27.2775 40.492 30.605 43.8196 34.7097 43.8196Z" fill="#627EEA"/>
</g>
<path d="M34.7079 28.6445V34.1371L39.3508 36.2118L34.7079 28.6445Z" fill="white" fill-opacity="0.602"/>
<path d="M34.7074 28.6445L30.0645 36.2118L34.7074 34.1371V28.6445Z" fill="white"/>
<path d="M34.7079 39.7712V43.5045L39.3547 37.0752L34.7079 39.7712Z" fill="white" fill-opacity="0.602"/>
<path d="M34.7074 43.5025V39.7692L30.0645 37.0752L34.7074 43.5025Z" fill="white"/>
<path d="M34.7079 38.9074L39.3508 36.2115L34.7079 34.1387V38.9074Z" fill="white" fill-opacity="0.2"/>
<path d="M30.0645 36.2115L34.7074 38.9074V34.1387L30.0645 36.2115Z" fill="white" fill-opacity="0.602"/>
<defs>
<clipPath id="clip0_12917_116071">
<rect width="43.3548" height="43.3548" fill="white" transform="translate(2 2.32227)"/>
</clipPath>
<clipPath id="clip1_12917_116071">
<rect width="14.8645" height="14.8645" fill="white" transform="translate(27.2775 28.9551)"/>
</clipPath>
</defs>
</svg>
