<svg width="48" height="48" viewBox="0 0 48 48" fill="none" xmlns="http://www.w3.org/2000/svg">
<mask id="mask0_12918_114499" style="mask-type:alpha" maskUnits="userSpaceOnUse" x="0" y="0" width="48" height="48">
<rect width="48" height="48" fill="#D9D9D9"/>
</mask>
<g mask="url(#mask0_12918_114499)">
<g clip-path="url(#clip0_12918_114499)">
<path d="M2 23.9997C2 29.7489 4.28386 35.2626 8.34917 39.3279C12.4145 43.3932 17.9282 45.6771 23.6774 45.6771C29.4266 45.6771 34.9404 43.3932 39.0057 39.3279C43.071 35.2626 45.3548 29.7489 45.3548 23.9997C45.3548 18.2505 43.071 12.7367 39.0057 8.67143C34.9404 4.60613 29.4266 2.32227 23.6774 2.32227C17.9282 2.32227 12.4145 4.60613 8.34917 8.67143C4.28386 12.7367 2 18.2505 2 23.9997H2Z" fill="#1BA27A"/>
<path d="M33.8506 13.2559H13.3243V18.2091H21.1108V25.4949H26.0663V18.2091H33.8506V13.2559Z" fill="white"/>
<path d="M36.7294 24.3707C36.7294 22.7492 30.8765 21.4355 23.6341 21.4355C16.3916 21.4355 10.5409 22.7492 10.5409 24.3707C10.5409 25.7992 15.0932 26.9893 21.1108 27.2516V37.7088H26.0619V27.2516C32.1316 27.0001 36.7294 25.8057 36.7294 24.3707ZM23.6341 26.2696C17.1937 26.2696 11.9716 25.2486 11.9716 24C11.9716 22.7514 17.1915 21.7239 23.6319 21.7239C30.0722 21.7239 35.2943 22.7427 35.2943 24C35.2943 25.2573 30.0744 26.2696 23.6341 26.2696Z" fill="white"/>
</g>
<path d="M34.7079 28.6445V34.1371L39.3509 36.2118L34.7079 28.6445Z" fill="white" fill-opacity="0.602"/>
<path d="M34.7075 28.6445L30.0645 36.2118L34.7075 34.1371V28.6445Z" fill="white"/>
<path d="M34.7079 39.7712V43.5045L39.3548 37.0752L34.7079 39.7712Z" fill="white" fill-opacity="0.602"/>
<path d="M34.7075 43.5025V39.7692L30.0645 37.0752L34.7075 43.5025Z" fill="white"/>
<path d="M34.7079 38.9074L39.3509 36.2115L34.7079 34.1387V38.9074Z" fill="white" fill-opacity="0.2"/>
<path d="M30.0645 36.2115L34.7075 38.9074V34.1387L30.0645 36.2115Z" fill="white" fill-opacity="0.602"/>
<path fill-rule="evenodd" clip-rule="evenodd" d="M32.7209 27.3992C33.6994 26.8669 34.8811 26.8669 35.8596 27.3992L41.5327 30.4851C42.5897 31.06 43.2477 32.167 43.2477 33.3702V39.2104C43.2477 40.4137 42.5897 41.5206 41.5327 42.0956L35.8596 45.1814C34.8811 45.7137 33.6994 45.7137 32.7209 45.1814L27.0478 42.0956C25.9908 41.5206 25.3328 40.4137 25.3328 39.2104L25.3328 33.3702C25.3328 32.167 25.9908 31.06 27.0478 30.4851L32.7209 27.3992Z" fill="#8247E5"/>
<g clip-path="url(#clip1_12918_114499)">
<path d="M34.2903 43.7229C38.3951 43.7229 41.7226 40.3954 41.7226 36.2906C41.7226 32.1859 38.3951 28.8584 34.2903 28.8584C30.1856 28.8584 26.8581 32.1859 26.8581 36.2906C26.8581 40.3954 30.1856 43.7229 34.2903 43.7229Z" fill="#8247E5"/>
</g>
<path d="M37.2104 34.7685C36.9876 34.6388 36.6979 34.6388 36.4528 34.7685L34.7147 35.7623L33.5337 36.4105L31.7957 37.4043C31.5728 37.5339 31.2832 37.5339 31.038 37.4043L29.6565 36.6265C29.4337 36.4969 29.2777 36.2592 29.2777 36V34.466C29.2777 34.2067 29.4114 33.9691 29.6565 33.8394L31.0158 33.0832C31.2386 32.9536 31.5283 32.9536 31.7734 33.0832L33.1326 33.8394C33.3555 33.9691 33.5115 34.2067 33.5115 34.466V35.4598L34.6925 34.7901V33.7962C34.6925 33.537 34.5588 33.2993 34.3137 33.1697L31.7957 31.7437C31.5728 31.6141 31.2832 31.6141 31.038 31.7437L28.4755 33.1697C28.2304 33.2993 28.0967 33.537 28.0967 33.7962V36.6697C28.0967 36.929 28.2304 37.1667 28.4755 37.2963L31.038 38.7223C31.2609 38.8519 31.5506 38.8519 31.7957 38.7223L33.5337 37.75L34.7147 37.0802L36.4528 36.108C36.6756 35.9784 36.9653 35.9784 37.2104 36.108L38.5697 36.8642C38.7925 36.9938 38.9485 37.2315 38.9485 37.4907V39.0247C38.9485 39.284 38.8148 39.5216 38.5697 39.6513L37.2104 40.4291C36.9876 40.5587 36.6979 40.5587 36.4528 40.4291L35.0936 39.6729C34.8707 39.5433 34.7147 39.3056 34.7147 39.0463V38.0525L33.5337 38.7223V39.7161C33.5337 39.9754 33.6674 40.213 33.9126 40.3427L36.4751 41.7686C36.6979 41.8982 36.9876 41.8982 37.2327 41.7686L39.7953 40.3427C40.0181 40.213 40.1741 39.9754 40.1741 39.7161V36.8426C40.1741 36.5833 40.0404 36.3457 39.7953 36.216L37.2104 34.7685Z" fill="white"/>
</g>
<defs>
<clipPath id="clip0_12918_114499">
<rect width="43.3548" height="43.3548" fill="white" transform="translate(2 2.32227)"/>
</clipPath>
<clipPath id="clip1_12918_114499">
<rect width="14.8645" height="14.8645" fill="white" transform="translate(26.8581 28.8584)"/>
</clipPath>
</defs>
</svg>
