<svg width="48" height="48" viewBox="0 0 48 48" fill="none" xmlns="http://www.w3.org/2000/svg">
<mask id="mask0_12917_116060" style="mask-type:alpha" maskUnits="userSpaceOnUse" x="0" y="0" width="48" height="48">
<rect width="48" height="48" fill="#D9D9D9"/>
</mask>
<g mask="url(#mask0_12917_116060)">
</g>
<g clip-path="url(#clip0_12917_116060)">
<path d="M44.719 29.2243C43.6859 33.3857 41.4418 37.1474 38.2705 40.0334C35.0993 42.9194 31.1433 44.8002 26.9029 45.4379C22.6625 46.0756 18.3283 45.4415 14.4484 43.6159C10.5684 41.7902 7.3171 38.855 5.10559 35.1815C2.89408 31.508 1.82173 27.2611 2.02418 22.9782C2.22663 18.6952 3.69479 14.5684 6.24295 11.1199C8.79112 7.67128 12.3048 5.05581 16.3397 3.60423C20.3745 2.15265 24.7493 1.93017 28.9106 2.96494C34.4867 4.35527 39.2833 7.90135 42.2472 12.8247C45.2111 17.748 46.1001 23.6461 44.719 29.2243Z" fill="#F7931A"/>
<path d="M33.2323 20.9142C33.6756 18.0335 31.4594 16.4812 28.4677 15.4481L29.4278 11.5335L27.0639 10.9425L26.1038 14.7462C25.4759 14.5986 24.848 14.4509 24.1832 14.3029L25.1436 10.4618L22.7795 9.87109L21.8191 13.75C21.302 13.6392 20.785 13.5284 20.3048 13.3807L17.0176 12.5673L16.3897 15.1156C16.3897 15.1156 18.1625 15.5218 18.1245 15.5589C19.0849 15.8174 19.2694 16.4453 19.2328 16.9254L18.1245 21.3944C18.2138 21.4065 18.3008 21.4314 18.383 21.4683L18.1245 21.3944L16.5742 27.6361C16.5411 27.7474 16.4855 27.8507 16.4108 27.9397C16.3362 28.0286 16.244 28.1013 16.1402 28.1533C16.0363 28.2052 15.9228 28.2353 15.8069 28.2417C15.6909 28.248 15.5748 28.2305 15.4659 28.1902C15.5028 28.2271 13.7311 27.7469 13.7311 27.7469L12.5483 30.4797L15.651 31.2553C16.242 31.403 16.7959 31.5507 17.3501 31.6986L16.3528 35.6503L18.7167 36.2413L19.714 32.3623C20.3787 32.5469 21.0066 32.6948 21.5977 32.8425L20.6373 36.7214L23.0011 37.3124L23.9984 33.3615C28.0614 34.137 31.1269 33.8048 32.3832 30.1482C33.4173 27.1935 32.3463 25.4947 30.2041 24.3867C31.7553 24.0542 32.9374 23.0202 33.2328 20.9149L33.2323 20.9142ZM27.8027 28.5224C27.0639 31.4772 22.0776 29.889 20.4893 29.4828L21.782 24.2383C23.4074 24.6445 28.5785 25.4569 27.8027 28.5224ZM28.5414 20.8774C27.8766 23.5736 23.7396 22.207 22.3733 21.8745L23.5551 17.1102C24.9217 17.4427 29.2432 18.0706 28.5414 20.8774Z" fill="white"/>
</g>
<path fill-rule="evenodd" clip-rule="evenodd" d="M32.7209 27.3992C33.6995 26.8669 34.8811 26.8669 35.8597 27.3992L41.5327 30.4851C42.5897 31.06 43.2477 32.167 43.2477 33.3702V39.2104C43.2477 40.4137 42.5897 41.5206 41.5327 42.0956L35.8597 45.1814C34.8811 45.7137 33.6995 45.7137 32.7209 45.1814L27.0479 42.0956C25.9908 41.5206 25.3329 40.4137 25.3329 39.2104L25.3329 33.3702C25.3329 32.167 25.9908 31.06 27.0479 30.4851L32.7209 27.3992Z" fill="#627EEA"/>
<g clip-path="url(#clip1_12917_116060)">
<path d="M34.2903 43.7229C38.3951 43.7229 41.7226 40.3954 41.7226 36.2906C41.7226 32.1859 38.3951 28.8584 34.2903 28.8584C30.1856 28.8584 26.8581 32.1859 26.8581 36.2906C26.8581 40.3954 30.1856 43.7229 34.2903 43.7229Z" fill="#627EEA"/>
</g>
<path d="M34.4498 28.4629V33.9553L39.0926 36.03L34.4498 28.4629Z" fill="white" fill-opacity="0.602"/>
<path d="M34.4493 28.4629L29.8065 36.03L34.4493 33.9553V28.4629Z" fill="white"/>
<path d="M34.4498 39.5914V43.3246L39.0965 36.8955L34.4498 39.5914Z" fill="white" fill-opacity="0.602"/>
<path d="M34.4493 43.3227V39.5895L29.8065 36.8955L34.4493 43.3227Z" fill="white"/>
<path d="M34.4498 38.7266L39.0926 36.0307L34.4498 33.958V38.7266Z" fill="white" fill-opacity="0.2"/>
<path d="M29.8065 36.0307L34.4493 38.7266V33.958L29.8065 36.0307Z" fill="white" fill-opacity="0.602"/>
<defs>
<clipPath id="clip0_12917_116060">
<rect width="43.3548" height="43.3548" fill="white" transform="translate(2 2.32227)"/>
</clipPath>
<clipPath id="clip1_12917_116060">
<rect width="14.8645" height="14.8645" fill="white" transform="translate(26.8581 28.8584)"/>
</clipPath>
</defs>
</svg>
