<svg width="48" height="48" viewBox="0 0 48 48" fill="none" xmlns="http://www.w3.org/2000/svg">
<mask id="mask0_12917_116057" style="mask-type:alpha" maskUnits="userSpaceOnUse" x="0" y="0" width="48" height="48">
<rect width="48" height="48" fill="#D9D9D9"/>
</mask>
<g mask="url(#mask0_12917_116057)">
<path d="M23.6774 45.6761C35.6495 45.6761 45.3548 35.9708 45.3548 23.9987C45.3548 12.0266 35.6495 2.32129 23.6774 2.32129C11.7053 2.32129 2 12.0266 2 23.9987C2 35.9708 11.7053 45.6761 23.6774 45.6761Z" fill="#EEEEEE"/>
<path d="M22.8996 8.5166V20.4172L32.9593 24.9124L22.8996 8.5166Z" fill="#404040"/>
<path d="M22.8984 8.5166L12.8387 24.9124L22.8984 20.4172V8.5166Z" fill="#A1A1A1"/>
<path d="M22.8996 32.6274V40.7163L32.9677 26.7861L22.8996 32.6274Z" fill="#363636"/>
<path d="M22.8984 40.7121V32.6232L12.8386 26.7861L22.8984 40.7121V40.7121Z" fill="#858585"/>
<path d="M22.8996 30.7542L32.9593 24.9129L22.8996 20.4219V30.7542Z" fill="#1C1C1C"/>
<path d="M12.8386 24.9129L22.8984 30.7542V20.4219L12.8386 24.9129Z" fill="#404040"/>
<path fill-rule="evenodd" clip-rule="evenodd" d="M33.1403 27.4959C34.1188 26.9636 35.3005 26.9636 36.2791 27.4959L41.9521 30.5817C43.0091 31.1567 43.6671 32.2636 43.6671 33.4669V39.3071C43.6671 40.5103 43.0091 41.6173 41.9521 42.1922L36.2791 45.2781C35.3005 45.8104 34.1188 45.8104 33.1403 45.2781L27.4672 42.1922C26.4102 41.6173 25.7522 40.5103 25.7522 39.3071L25.7522 33.4669C25.7522 32.2636 26.4102 31.1567 27.4672 30.5817L33.1403 27.4959Z" fill="#627EEA"/>
<g clip-path="url(#clip0_12917_116057)">
<path d="M34.7097 43.8196C38.8144 43.8196 42.142 40.492 42.142 36.3873C42.142 32.2826 38.8144 28.9551 34.7097 28.9551C30.605 28.9551 27.2775 32.2826 27.2775 36.3873C27.2775 40.492 30.605 43.8196 34.7097 43.8196Z" fill="#627EEA"/>
</g>
<path d="M34.4498 28.4629V33.9553L39.0926 36.03L34.4498 28.4629Z" fill="white" fill-opacity="0.602"/>
<path d="M34.4493 28.4629L29.8065 36.03L34.4493 33.9553V28.4629Z" fill="white"/>
<path d="M34.4498 39.5914V43.3246L39.0965 36.8955L34.4498 39.5914Z" fill="white" fill-opacity="0.602"/>
<path d="M34.4493 43.3227V39.5895L29.8065 36.8955L34.4493 43.3227V43.3227Z" fill="white"/>
<path d="M34.4498 38.7266L39.0926 36.0307L34.4498 33.958V38.7266Z" fill="white" fill-opacity="0.2"/>
<path d="M29.8065 36.0307L34.4493 38.7266V33.958L29.8065 36.0307Z" fill="white" fill-opacity="0.602"/>
</g>
<defs>
<clipPath id="clip0_12917_116057">
<rect width="14.8645" height="14.8645" fill="white" transform="translate(27.2775 28.9551)"/>
</clipPath>
</defs>
</svg>
