<svg width="48" height="48" viewBox="0 0 48 48" fill="none" xmlns="http://www.w3.org/2000/svg">
<mask id="mask0_12917_116065" style="mask-type:alpha" maskUnits="userSpaceOnUse" x="0" y="0" width="48" height="48">
<rect width="48" height="48" fill="#D9D9D9"/>
</mask>
<g mask="url(#mask0_12917_116065)">
<g clip-path="url(#clip0_12917_116065)">
<path d="M2 23.9997C2 29.7489 4.28386 35.2626 8.34917 39.3279C12.4145 43.3932 17.9282 45.6771 23.6774 45.6771C29.4266 45.6771 34.9404 43.3932 39.0057 39.3279C43.071 35.2626 45.3548 29.7489 45.3548 23.9997C45.3548 18.2505 43.071 12.7367 39.0057 8.67143C34.9404 4.60613 29.4266 2.32227 23.6774 2.32227C17.9282 2.32227 12.4145 4.60613 8.34917 8.67143C4.28386 12.7367 2 18.2505 2 23.9997H2Z" fill="#1BA27A"/>
<path d="M33.8506 13.2559H13.3243V18.2091H21.1108V25.4949H26.0663V18.2091H33.8506V13.2559Z" fill="white"/>
<path d="M36.7294 24.3707C36.7294 22.7492 30.8764 21.4355 23.634 21.4355C16.3916 21.4355 10.5409 22.7492 10.5409 24.3707C10.5409 25.7992 15.0931 26.9893 21.1108 27.2516V37.7088H26.0619V27.2516C32.1316 27.0001 36.7294 25.8057 36.7294 24.3707ZM23.634 26.2696C17.1937 26.2696 11.9716 25.2486 11.9716 24C11.9716 22.7514 17.1915 21.7239 23.6319 21.7239C30.0722 21.7239 35.2943 22.7427 35.2943 24C35.2943 25.2573 30.0744 26.2696 23.634 26.2696Z" fill="white"/>
</g>
<path fill-rule="evenodd" clip-rule="evenodd" d="M33.1403 27.4959C34.1188 26.9636 35.3005 26.9636 36.2791 27.4959L41.9521 30.5817C43.0091 31.1567 43.6671 32.2636 43.6671 33.4669V39.3071C43.6671 40.5104 43.0091 41.6173 41.9521 42.1923L36.2791 45.2781C35.3005 45.8104 34.1188 45.8104 33.1403 45.2781L27.4672 42.1923C26.4102 41.6173 25.7522 40.5104 25.7522 39.3071L25.7522 33.4669C25.7522 32.2636 26.4102 31.1567 27.4672 30.5817L33.1403 27.4959Z" fill="#627EEA"/>
<path d="M34.708 28.6445V34.1371L39.351 36.2118L34.708 28.6445Z" fill="white" fill-opacity="0.602"/>
<path d="M34.7075 28.6445L30.0645 36.2118L34.7075 34.1371V28.6445Z" fill="white"/>
<path d="M34.708 39.7712V43.5045L39.3548 37.0752L34.708 39.7712Z" fill="white" fill-opacity="0.602"/>
<path d="M34.7075 43.5025V39.7692L30.0645 37.0752L34.7075 43.5025Z" fill="white"/>
<path d="M34.708 38.9074L39.351 36.2115L34.708 34.1387V38.9074Z" fill="white" fill-opacity="0.2"/>
<path d="M30.0645 36.2115L34.7075 38.9074V34.1387L30.0645 36.2115Z" fill="white" fill-opacity="0.602"/>
</g>
<defs>
<clipPath id="clip0_12917_116065">
<rect width="43.3548" height="43.3548" fill="white" transform="translate(2 2.32227)"/>
</clipPath>
</defs>
</svg>
