<svg width="48" height="48" viewBox="0 0 48 48" fill="none" xmlns="http://www.w3.org/2000/svg">
<mask id="mask0_12917_116116" style="mask-type:alpha" maskUnits="userSpaceOnUse" x="0" y="0" width="48" height="48">
<rect width="48" height="48" fill="#D9D9D9"/>
</mask>
<g mask="url(#mask0_12917_116116)">
</g>
<g clip-path="url(#clip0_12917_116116)">
<path d="M23.6774 45.6766C35.6495 45.6766 45.3548 35.9713 45.3548 23.9992C45.3548 12.0271 35.6495 2.32178 23.6774 2.32178C11.7053 2.32178 2 12.0271 2 23.9992C2 35.9713 11.7053 45.6766 23.6774 45.6766Z" fill="white"/>
<path d="M23.6774 2.32178C11.7071 2.32178 2 12.0289 2 23.9992C2 35.9694 11.7071 45.6766 23.6774 45.6766C35.6477 45.6766 45.3548 35.9694 45.3548 23.9992C45.3548 12.0289 35.6477 2.32178 23.6774 2.32178ZM19.6194 38.8395C19.6151 39.1473 19.4546 39.3858 19.1988 39.4638C19.0298 39.5159 18.8607 39.4942 18.6916 39.4422C17.9199 39.1907 17.1655 38.8872 16.4415 38.523C14.2347 37.4132 12.3661 35.8871 10.853 33.9361C9.29661 31.9288 8.2691 29.6743 7.77052 27.1771C7.56242 26.1322 7.4497 25.0744 7.4627 24.0078C7.44536 18.8616 9.90792 13.9539 14.161 10.8627C15.5527 9.85251 17.0615 9.08513 18.6959 8.5562C18.7783 8.53018 18.8607 8.50851 18.9474 8.50417C19.3202 8.48683 19.5977 8.71661 19.6107 9.08946C19.6281 9.5707 19.6367 10.0519 19.6064 10.5288C19.5847 10.88 19.3809 11.1488 19.0471 11.2919C18.7696 11.4089 18.4835 11.513 18.206 11.6387C15.531 12.844 13.4587 14.7212 11.9716 17.2488C11.1262 18.6882 10.5886 20.2446 10.3198 21.8921C10.1377 23.028 10.0943 24.1726 10.2201 25.3128C10.6493 29.1887 12.4052 32.332 15.479 34.7295C16.5412 35.5576 17.7161 36.1949 18.9821 36.6588C19.2639 36.7628 19.446 36.9579 19.5587 37.2311C19.5934 37.3221 19.6151 37.4175 19.6151 37.5129C19.6194 37.9594 19.6237 38.3973 19.6194 38.8395ZM25.2945 31.9244C25.0431 31.9721 25.0431 31.9721 25.0431 32.2323C25.0431 32.8002 25.0431 33.3638 25.0431 33.9318C25.0431 33.9708 25.0431 34.0098 25.0431 34.0532C25.0214 34.5994 24.6659 34.8249 24.2584 34.8119C23.8421 34.7989 23.4216 34.8119 23.0054 34.8075C22.6759 34.8032 22.4331 34.6081 22.3464 34.3046C22.3247 34.2309 22.3247 34.1572 22.3247 34.0835C22.3247 34.0705 22.3247 34.0618 22.3247 34.0488C22.3247 33.7453 22.3247 33.4419 22.3247 33.1384C22.3247 32.8002 22.3204 32.462 22.3247 32.1239C22.3247 32.0328 22.2987 31.9938 22.2033 31.9808C21.7611 31.9158 21.3276 31.8204 20.9027 31.6773C20.0183 31.3782 19.2422 30.9143 18.6352 30.1902C18.089 29.5399 17.7725 28.7812 17.5904 27.9618C17.5687 27.8664 17.5514 27.771 17.5384 27.6757C17.4863 27.3288 17.7378 27.0123 18.0846 26.9777C18.1236 26.9733 18.1627 26.9733 18.206 26.9733C18.6916 26.9733 19.1772 26.982 19.6627 26.969C20.0399 26.9603 20.3087 27.2334 20.3694 27.5456C20.4215 27.8231 20.5168 28.0832 20.6382 28.339C20.9027 28.9113 21.3362 29.3058 21.9085 29.5529C22.3161 29.7263 22.7496 29.8131 23.1918 29.8477C23.7251 29.8868 24.254 29.8911 24.7786 29.7567C25.2165 29.644 25.624 29.4662 25.9709 29.1757C26.5908 28.6511 26.838 27.9748 26.7729 27.1771C26.7599 27.034 26.7426 26.8909 26.7079 26.7522C26.5952 26.2926 26.322 25.9545 25.9188 25.7204C25.5113 25.4776 25.0648 25.3432 24.6052 25.2305C24.0372 25.0917 23.4606 25.0093 22.884 24.9183C21.9866 24.7752 21.0978 24.5758 20.261 24.2029C19.9142 24.0512 19.589 23.8604 19.2856 23.6307C18.5789 23.0844 18.167 22.356 18.0023 21.4889C17.9155 21.0337 17.8809 20.5698 17.9155 20.1059C18.0066 18.8746 18.5485 17.8775 19.5067 17.1058C20.2003 16.5465 21.0024 16.2127 21.8738 16.0349C21.9909 16.0089 22.108 15.9872 22.2293 15.9699C22.2944 15.9612 22.3204 15.9308 22.3161 15.8702C22.3161 15.8311 22.3161 15.7921 22.3161 15.7488C22.3161 15.1244 22.3161 14.5001 22.3161 13.8802C22.3161 13.5333 22.5328 13.2732 22.858 13.2038C22.9144 13.1908 22.9707 13.1908 23.0271 13.1908C23.452 13.1908 23.8725 13.1865 24.2974 13.1908C24.7353 13.1952 25.0171 13.4726 25.0171 13.9105C25.0214 14.5522 25.0171 15.1938 25.0171 15.8311C25.0171 16.0046 25.0171 16.0046 25.1818 16.0392C25.8061 16.165 26.4044 16.3731 26.9594 16.6982C27.9695 17.2965 28.5982 18.1853 28.9363 19.2995C28.9754 19.4252 29.01 19.551 29.0317 19.681C29.1098 20.0669 28.8496 20.4181 28.4551 20.4267C27.9522 20.4397 27.4493 20.4354 26.9464 20.4267C26.6732 20.4224 26.4478 20.236 26.3567 19.9542C26.2917 19.7461 26.2093 19.5466 26.1096 19.3515C25.8191 18.8096 25.3769 18.4541 24.8003 18.259C24.2844 18.0899 23.7468 18.0509 23.2092 18.0682C22.7669 18.0856 22.3334 18.1506 21.9215 18.3284C21.2712 18.6058 20.842 19.0741 20.7249 19.7851C20.6599 20.184 20.6772 20.5828 20.8116 20.973C20.9244 21.3068 21.1498 21.554 21.4446 21.7404C21.8131 21.9745 22.2207 22.1046 22.6369 22.213C23.2092 22.356 23.7945 22.4341 24.3754 22.5208C25.2772 22.6595 26.166 22.8416 27.0157 23.1798C27.4579 23.3575 27.8741 23.5786 28.2513 23.8778C28.7846 24.3027 29.1661 24.8359 29.3699 25.4862C29.6734 26.4574 29.7211 27.4415 29.4479 28.43C29.1184 29.618 28.3857 30.5024 27.3496 31.144C26.7166 31.5386 26.0229 31.79 25.2945 31.9244ZM33.2241 37.1097C31.8281 38.1328 30.3063 38.9046 28.6632 39.4378C28.5418 39.4768 28.4204 39.5029 28.2947 39.4898C28.0129 39.4638 27.8178 39.2904 27.7571 39.0173C27.7354 38.9262 27.7311 38.8352 27.7311 38.7441C27.7311 38.3973 27.7311 38.0461 27.7311 37.6993C27.7311 37.1053 27.8958 36.8582 28.4464 36.6501C30.1026 36.0215 31.5853 35.1067 32.873 33.8927C35.0277 31.8681 36.3977 29.4055 36.9613 26.4964C37.1911 25.3042 37.2648 24.0989 37.1477 22.8936C36.7705 18.9613 35.0233 15.7618 31.9191 13.3166C30.857 12.4798 29.682 11.8295 28.4117 11.3699C27.9652 11.2095 27.7181 10.7716 27.7311 10.3858C27.7441 10.0129 27.7354 9.64007 27.7354 9.27155C27.7354 9.15016 27.7484 9.02876 27.7961 8.92038C27.8958 8.6906 28.0692 8.56053 28.3207 8.54319C28.4464 8.53452 28.5722 8.56053 28.6892 8.59955C30.4971 9.18484 32.1576 10.0476 33.649 11.2225C36.7445 13.6634 38.7128 16.8153 39.5539 20.6652C39.7924 21.7621 39.9008 22.8763 39.9008 24.0035C39.8921 29.1974 37.4469 34.0098 33.2241 37.1097Z" fill="#52A5FF"/>
</g>
<path fill-rule="evenodd" clip-rule="evenodd" d="M33.1403 27.4959C34.1188 26.9636 35.3005 26.9636 36.2791 27.4959L41.9521 30.5817C43.0091 31.1567 43.6671 32.2636 43.6671 33.4669V39.3071C43.6671 40.5103 43.0091 41.6173 41.9521 42.1923L36.2791 45.2781C35.3005 45.8104 34.1188 45.8104 33.1403 45.2781L27.4672 42.1923C26.4102 41.6173 25.7522 40.5103 25.7522 39.3071L25.7522 33.4669C25.7522 32.2636 26.4102 31.1567 27.4672 30.5817L33.1403 27.4959Z" fill="#8247E5"/>
<g clip-path="url(#clip1_12917_116116)">
<path d="M34.7097 43.8196C38.8144 43.8196 42.142 40.492 42.142 36.3873C42.142 32.2826 38.8144 28.9551 34.7097 28.9551C30.605 28.9551 27.2775 32.2826 27.2775 36.3873C27.2775 40.492 30.605 43.8196 34.7097 43.8196Z" fill="#8247E5"/>
</g>
<path d="M37.6298 34.8647C37.407 34.735 37.1173 34.735 36.8722 34.8647L35.1341 35.8585L33.9531 36.5067L32.215 37.5005C31.9922 37.6301 31.7025 37.6301 31.4574 37.5005L30.0759 36.7227C29.853 36.5931 29.6971 36.3554 29.6971 36.0962V34.5622C29.6971 34.3029 29.8308 34.0653 30.0759 33.9356L31.4351 33.1794C31.658 33.0498 31.9476 33.0498 32.1928 33.1794L33.552 33.9356C33.7749 34.0653 33.9308 34.3029 33.9308 34.5622V35.556L35.1118 34.8863V33.8924C35.1118 33.6331 34.9781 33.3955 34.733 33.2659L32.215 31.8399C31.9922 31.7103 31.7025 31.7103 31.4574 31.8399L28.8949 33.2659C28.6497 33.3955 28.5161 33.6331 28.5161 33.8924V36.7659C28.5161 37.0252 28.6497 37.2628 28.8949 37.3925L31.4574 38.8184C31.6803 38.9481 31.9699 38.9481 32.215 38.8184L33.9531 37.8462L35.1341 37.1764L36.8722 36.2042C37.095 36.0746 37.3847 36.0746 37.6298 36.2042L38.9891 36.9604C39.2119 37.09 39.3679 37.3277 39.3679 37.5869V39.1209C39.3679 39.3802 39.2342 39.6178 38.9891 39.7475L37.6298 40.5253C37.407 40.6549 37.1173 40.6549 36.8722 40.5253L35.5129 39.7691C35.2901 39.6394 35.1341 39.4018 35.1341 39.1425V38.1487L33.9531 38.8184V39.8123C33.9531 40.0716 34.0868 40.3092 34.3319 40.4388L36.8945 41.8648C37.1173 41.9944 37.407 41.9944 37.6521 41.8648L40.2146 40.4388C40.4375 40.3092 40.5935 40.0716 40.5935 39.8123V36.9388C40.5935 36.6795 40.4598 36.4419 40.2146 36.3122L37.6298 34.8647Z" fill="white"/>
<defs>
<clipPath id="clip0_12917_116116">
<rect width="43.3548" height="43.3548" fill="white" transform="translate(2 2.32227)"/>
</clipPath>
<clipPath id="clip1_12917_116116">
<rect width="14.8645" height="14.8645" fill="white" transform="translate(27.2775 28.9551)"/>
</clipPath>
</defs>
</svg>
