<svg width="48" height="48" viewBox="0 0 48 48" fill="none" xmlns="http://www.w3.org/2000/svg">
<mask id="mask0_12917_116081" style="mask-type:alpha" maskUnits="userSpaceOnUse" x="0" y="0" width="48" height="48">
<rect width="48" height="48" fill="#D9D9D9"/>
</mask>
<g mask="url(#mask0_12917_116081)">
</g>
<g clip-path="url(#clip0_12917_116081)">
<g clip-path="url(#clip1_12917_116081)">
<path d="M23.6774 45.6771C35.6495 45.6771 45.3548 35.9718 45.3548 23.9997C45.3548 12.0276 35.6495 2.32227 23.6774 2.32227C11.7053 2.32227 2 12.0276 2 23.9997C2 35.9718 11.7053 45.6771 23.6774 45.6771Z" fill="url(#paint0_linear_12917_116081)"/>
</g>
<path d="M36.5484 23.5673C36.5484 27.7922 34.3469 32.2316 30.4177 34.345C27.9959 35.7045 24.6906 35.9912 21.9022 35.9912H15.9548V31.6581H21.754C23.9925 31.6581 25.9015 31.5498 27.9938 30.441C30.4897 29.1156 31.8489 26.2883 31.8489 23.5653C31.8489 21.2373 30.8584 18.9113 29.0956 17.3713C26.6738 15.3301 23.7742 15.2599 20.7264 15.2599H15.9548V10.9268H21.791C25.3887 10.9268 29.5363 11.4641 32.3267 13.8262C35.08 16.2264 36.5484 19.9861 36.5484 23.5673Z" fill="white"/>
</g>
<path fill-rule="evenodd" clip-rule="evenodd" d="M33.1402 27.4959C34.1188 26.9636 35.3005 26.9636 36.279 27.4959L41.9521 30.5817C43.0091 31.1567 43.6671 32.2636 43.6671 33.4669V39.3071C43.6671 40.5103 43.0091 41.6173 41.9521 42.1923L36.279 45.2781C35.3005 45.8104 34.1188 45.8104 33.1402 45.2781L27.4672 42.1923C26.4102 41.6173 25.7522 40.5103 25.7522 39.3071L25.7522 33.4669C25.7522 32.2636 26.4102 31.1567 27.4672 30.5817L33.1402 27.4959Z" fill="#8247E5"/>
<g clip-path="url(#clip2_12917_116081)">
<path d="M34.7097 43.8196C38.8144 43.8196 42.142 40.492 42.142 36.3873C42.142 32.2826 38.8144 28.9551 34.7097 28.9551C30.605 28.9551 27.2775 32.2826 27.2775 36.3873C27.2775 40.492 30.605 43.8196 34.7097 43.8196Z" fill="#8247E5"/>
</g>
<path d="M37.6298 34.8651C37.407 34.7355 37.1173 34.7355 36.8722 34.8651L35.1341 35.859L33.9531 36.5072L32.215 37.501C31.9922 37.6306 31.7025 37.6306 31.4574 37.501L30.0759 36.7232C29.853 36.5936 29.6971 36.3559 29.6971 36.0967V34.5627C29.6971 34.3034 29.8308 34.0657 30.0759 33.9361L31.4351 33.1799C31.658 33.0503 31.9476 33.0503 32.1928 33.1799L33.552 33.9361C33.7749 34.0657 33.9308 34.3034 33.9308 34.5627V35.5565L35.1118 34.8868V33.8929C35.1118 33.6336 34.9781 33.396 34.733 33.2663L32.215 31.8404C31.9922 31.7108 31.7025 31.7108 31.4574 31.8404L28.8949 33.2663C28.6497 33.396 28.5161 33.6336 28.5161 33.8929V36.7664C28.5161 37.0257 28.6497 37.2633 28.8949 37.393L31.4574 38.8189C31.6803 38.9486 31.9699 38.9486 32.215 38.8189L33.9531 37.8467L35.1341 37.1769L36.8722 36.2047C37.095 36.075 37.3847 36.075 37.6298 36.2047L38.9891 36.9609C39.2119 37.0905 39.3679 37.3281 39.3679 37.5874V39.1214C39.3679 39.3807 39.2342 39.6183 38.9891 39.748L37.6298 40.5258C37.407 40.6554 37.1173 40.6554 36.8722 40.5258L35.5129 39.7696C35.2901 39.6399 35.1341 39.4023 35.1341 39.143V38.1492L33.9531 38.8189V39.8128C33.9531 40.072 34.0868 40.3097 34.3319 40.4393L36.8945 41.8653C37.1173 41.9949 37.407 41.9949 37.6521 41.8653L40.2146 40.4393C40.4375 40.3097 40.5935 40.072 40.5935 39.8128V36.9393C40.5935 36.68 40.4598 36.4423 40.2146 36.3127L37.6298 34.8651Z" fill="white"/>
<defs>
<linearGradient id="paint0_linear_12917_116081" x1="2" y1="23.9997" x2="45.3548" y2="23.9997" gradientUnits="userSpaceOnUse">
<stop stop-color="#487DFF"/>
<stop offset="1" stop-color="#5FC7FF"/>
</linearGradient>
<clipPath id="clip0_12917_116081">
<rect width="43.3548" height="43.3548" fill="white" transform="translate(2 2.32227)"/>
</clipPath>
<clipPath id="clip1_12917_116081">
<rect width="43.3548" height="43.3548" fill="white" transform="translate(2 2.32227)"/>
</clipPath>
<clipPath id="clip2_12917_116081">
<rect width="14.8645" height="14.8645" fill="white" transform="translate(27.2775 28.9551)"/>
</clipPath>
</defs>
</svg>
